<svg width="30" height="17" viewBox="0 0 30 17" fill="none" xmlns="http://www.w3.org/2000/svg">
<rect width="30" height="17" rx="1" fill="#464646"/>
<path fill-rule="evenodd" clip-rule="evenodd" d="M17.6607 4.03578C16.9897 3.72724 16.2276 3.56053 15.3745 3.53564V2.5708H14.7524V3.54834C13.868 3.60758 13.1634 3.86361 12.6387 4.31641C12.1139 4.76921 11.8516 5.38704 11.8516 6.16992C11.8516 7.37174 12.4757 8.19271 13.7241 8.63281C13.8124 8.66856 13.9415 8.71371 14.1113 8.76826L15.3745 7.08398V4.93213C15.8232 4.94927 16.294 5.03878 16.787 5.20065L17.6607 4.03578ZM16.6511 7.88191L15.6322 9.24036C16.2433 9.46355 16.5488 9.83656 16.5488 10.3594C16.5488 11.1126 16.1574 11.5527 15.3745 11.6797V9.58398L14.7524 10.4134V11.7178C14.453 11.7088 14.1541 11.6725 13.8558 11.609L12.9282 12.8458C13.4964 13.0257 14.1002 13.1194 14.7397 13.127L14.7524 14.3457H15.3745V13.1016C16.2801 13.0212 16.9932 12.7461 17.5137 12.2764C18.0342 11.8066 18.2944 11.1719 18.2944 10.3721C18.2944 9.63151 18.1104 9.05387 17.7422 8.63916C17.4928 8.35494 17.1291 8.10252 16.6511 7.88191ZM12.0732 11.4857L12.3836 11.0719C12.3311 11.0447 12.2786 11.0167 12.2261 10.9878L12.0732 11.4857ZM14.7524 4.95752V7.21729C14.5747 7.16227 14.4562 7.12419 14.397 7.10303C13.8849 6.94645 13.6289 6.61003 13.6289 6.09375C13.6458 5.74674 13.7474 5.48226 13.9336 5.30029C14.1198 5.11833 14.3927 5.00407 14.7524 4.95752Z" fill="#C8C8C8"/>
<path d="M10 14L19.5 2" stroke="#C8C8C8" stroke-width="0.5" stroke-linecap="round" stroke-linejoin="round"/>
</svg>
