<svg width="30" height="17" viewBox="0 0 30 17" fill="none" xmlns="http://www.w3.org/2000/svg">
<rect width="30" height="17" rx="1" fill="#464646"/>
<ellipse cx="8.5" cy="5.25" rx="3.32881" ry="3.25" fill="#C8C8C8"/>
<path fill-rule="evenodd" clip-rule="evenodd" d="M1.99999 15H15C14.6087 13.1031 13.2459 9.8 8.49999 9.8C3.75405 9.8 2.3913 13.1031 1.99999 15Z" fill="#C8C8C8"/>
<path fill-rule="evenodd" clip-rule="evenodd" d="M15.244 13.2939L15.7031 13.2472L15.8921 13.7155L16.9187 14.0162L17.855 13.9045L18.4649 13.5737L18.6925 13.9045L18.903 14.0892L19.0275 14.39V15H26.0157V14.8153V14.5833L26.1274 14.39L26.4194 14.5833L27.6392 13.7412L28 9.79742L27.7294 9.54395L26.6728 9.11005L26.3335 8.73199L26.1832 8.2766L26.3335 7.56775H26.1832L26.8661 5.98248L26.8146 5.60872L27.0895 4.62921V3.7571L26.9778 3.67118L27.1925 2.3265L27.1582 2L26.2218 2.00859L25.5389 4.50892L24.5897 6.11137L24.2375 5.61732L24.289 5.22637L23.9368 4.34567L23.6233 4.21679L23.8295 4.82254L23.5675 6.11137L23.3871 6.43787L22.8416 6.63979L22.3562 6.43787L22.1157 6.19729L21.8151 5.55717V4.69365L21.5187 4.87839L21.4543 5.38533L21.3426 5.20489L21.2696 5.50132L21.4543 5.76338H21.0548L21.3125 6.03833L21.1407 6.33047L21.3641 6.55816L20.9904 6.70853L21.1407 7.19828L21.4543 7.53338L21.2696 7.64937L21.2138 7.8427L21.3125 8.02743L21.6476 8.12624L21.5273 8.34964L21.6132 8.89954L21.8775 8.62888V8.89954L21.6476 9.14871L21.6132 9.39788L21.8775 9.30337L21.8858 9.50529L21.6476 9.5998L21.8858 9.97356L21.7463 10.3258H21.6476L21.6132 10.4633L21.8858 10.7984H21.2138L19.2423 10.343L18.903 9.61699L19.0877 8.89954L18.2158 8.34964L17.6402 8.18209L16.7597 8.10046L14 7C10.6966 8.44329 9.23495 9.05384 8.8757 9.50611C12.4962 9.62527 14.3226 11.4666 15.244 13.2939Z" fill="#C8C8C8"/>
</svg>
